<svg xmlns="http://www.w3.org/2000/svg" xmlns:xlink="http://www.w3.org/1999/xlink" width="500" zoomAndPan="magnify" viewBox="0 0 375 374.999991" height="500" preserveAspectRatio="xMidYMid meet" version="1.0"><defs><g/></defs><g fill="#000000" fill-opacity="1"><g transform="translate(72.532705, 147.652651)"><g><path d="M 34.9375 -80.640625 C 39.226562 -80.640625 43.421875 -80.015625 47.515625 -78.765625 C 51.609375 -77.515625 54.648438 -76.285156 56.640625 -75.078125 L 59.515625 -73.15625 L 52.21875 -58.75 C 51.644531 -59.132812 50.84375 -59.628906 49.8125 -60.234375 C 48.789062 -60.847656 46.875 -61.664062 44.0625 -62.6875 C 41.25 -63.707031 38.625 -64.21875 36.1875 -64.21875 C 33.1875 -64.21875 30.867188 -63.578125 29.234375 -62.296875 C 27.597656 -61.023438 26.78125 -59.300781 26.78125 -57.125 C 26.78125 -56.03125 27.164062 -55.019531 27.9375 -54.09375 C 28.707031 -53.164062 30.019531 -52.171875 31.875 -51.109375 C 33.726562 -50.054688 35.359375 -49.207031 36.765625 -48.5625 C 38.171875 -47.925781 40.347656 -46.972656 43.296875 -45.703125 C 48.410156 -43.523438 52.773438 -40.5625 56.390625 -36.8125 C 60.015625 -33.070312 61.828125 -28.832031 61.828125 -24.09375 C 61.828125 -19.550781 61.007812 -15.582031 59.375 -12.1875 C 57.738281 -8.800781 55.5 -6.144531 52.65625 -4.21875 C 49.8125 -2.300781 46.660156 -0.878906 43.203125 0.046875 C 39.742188 0.972656 36 1.4375 31.96875 1.4375 C 28.507812 1.4375 25.113281 1.082031 21.78125 0.375 C 18.457031 -0.320312 15.675781 -1.195312 13.4375 -2.25 C 11.195312 -3.3125 9.179688 -4.351562 7.390625 -5.375 C 5.597656 -6.394531 4.285156 -7.257812 3.453125 -7.96875 L 2.203125 -9.03125 L 11.234375 -24.1875 C 12.003906 -23.550781 13.0625 -22.734375 14.40625 -21.734375 C 15.75 -20.742188 18.128906 -19.414062 21.546875 -17.75 C 24.972656 -16.09375 28 -15.265625 30.625 -15.265625 C 38.238281 -15.265625 42.046875 -17.859375 42.046875 -23.046875 C 42.046875 -24.128906 41.773438 -25.132812 41.234375 -26.0625 C 40.691406 -26.988281 39.726562 -27.914062 38.34375 -28.84375 C 36.96875 -29.769531 35.753906 -30.503906 34.703125 -31.046875 C 33.648438 -31.597656 31.921875 -32.429688 29.515625 -33.546875 C 27.117188 -34.671875 25.34375 -35.519531 24.1875 -36.09375 C 19.382812 -38.457031 15.671875 -41.414062 13.046875 -44.96875 C 10.429688 -48.519531 9.125 -52.347656 9.125 -56.453125 C 9.125 -63.554688 11.742188 -69.363281 16.984375 -73.875 C 22.234375 -78.382812 28.21875 -80.640625 34.9375 -80.640625 Z M 34.9375 -80.640625 "/></g></g></g><g fill="#000000" fill-opacity="1"><g transform="translate(128.020719, 147.652651)"><g><path d="M 10.40625 -5.859375 C 4.9375 -10.722656 2.203125 -16.960938 2.203125 -24.578125 C 2.203125 -32.191406 5.050781 -38.445312 10.75 -43.34375 C 16.445312 -48.238281 23.488281 -50.6875 31.875 -50.6875 C 40.125 -50.6875 47.082031 -48.222656 52.75 -43.296875 C 58.414062 -38.367188 61.25 -32.128906 61.25 -24.578125 C 61.25 -17.023438 58.476562 -10.800781 52.9375 -5.90625 C 47.40625 -1.007812 40.382812 1.4375 31.875 1.4375 C 23.039062 1.4375 15.882812 -0.992188 10.40625 -5.859375 Z M 23.5625 -32.921875 C 21.351562 -30.742188 20.25 -27.957031 20.25 -24.5625 C 20.25 -21.175781 21.304688 -18.410156 23.421875 -16.265625 C 25.535156 -14.128906 28.320312 -13.0625 31.78125 -13.0625 C 35.101562 -13.0625 37.835938 -14.144531 39.984375 -16.3125 C 42.128906 -18.488281 43.203125 -21.242188 43.203125 -24.578125 C 43.203125 -27.960938 42.097656 -30.742188 39.890625 -32.921875 C 37.679688 -35.097656 34.976562 -36.1875 31.78125 -36.1875 C 28.507812 -36.1875 25.769531 -35.097656 23.5625 -32.921875 Z M 23.5625 -32.921875 "/></g></g></g><g fill="#000000" fill-opacity="1"><g transform="translate(182.45273, 147.652651)"><g><path d="M 5.765625 0 L 5.765625 -49.25 L 22.75 -49.25 L 22.75 -44.0625 L 22.9375 -44.0625 C 27.351562 -48.476562 32.0625 -50.6875 37.0625 -50.6875 C 39.488281 -50.6875 41.898438 -50.363281 44.296875 -49.71875 C 46.703125 -49.082031 49.007812 -48.09375 51.21875 -46.75 C 53.425781 -45.40625 55.21875 -43.5 56.59375 -41.03125 C 57.96875 -38.570312 58.65625 -35.710938 58.65625 -32.453125 L 58.65625 0 L 41.65625 0 L 41.65625 -27.84375 C 41.65625 -30.40625 40.835938 -32.644531 39.203125 -34.5625 C 37.578125 -36.476562 35.453125 -37.4375 32.828125 -37.4375 C 30.265625 -37.4375 27.941406 -36.441406 25.859375 -34.453125 C 23.785156 -32.472656 22.75 -30.269531 22.75 -27.84375 L 22.75 0 Z M 5.765625 0 "/></g></g></g><g fill="#354f52" fill-opacity="1"><g transform="translate(236.888163, 147.652651)"><g><path d="M 9.109375 -6.09375 C 4.503906 -11.113281 2.203125 -17.269531 2.203125 -24.5625 C 2.203125 -31.863281 4.503906 -38.039062 9.109375 -43.09375 C 13.722656 -48.15625 19.582031 -50.6875 26.6875 -50.6875 C 33.21875 -50.6875 38.59375 -48.640625 42.8125 -44.546875 L 42.8125 -49.25 L 59.8125 -49.25 L 59.8125 0 L 43.015625 0 L 43.015625 -5.5625 L 42.8125 -5.5625 C 38.59375 -0.894531 33.21875 1.4375 26.6875 1.4375 C 19.582031 1.4375 13.722656 -1.070312 9.109375 -6.09375 Z M 23.5625 -32.921875 C 21.351562 -30.742188 20.25 -27.957031 20.25 -24.5625 C 20.25 -21.175781 21.304688 -18.410156 23.421875 -16.265625 C 25.535156 -14.128906 28.320312 -13.0625 31.78125 -13.0625 C 35.101562 -13.0625 37.835938 -14.144531 39.984375 -16.3125 C 42.128906 -18.488281 43.203125 -21.242188 43.203125 -24.578125 C 43.203125 -27.960938 42.097656 -30.742188 39.890625 -32.921875 C 37.679688 -35.097656 34.976562 -36.1875 31.78125 -36.1875 C 28.507812 -36.1875 25.769531 -35.097656 23.5625 -32.921875 Z M 23.5625 -32.921875 "/></g></g></g><g fill="#000000" fill-opacity="1"><g transform="translate(25.399895, 245.902645)"><g><path d="M 34.9375 -80.640625 C 39.226562 -80.640625 43.421875 -80.015625 47.515625 -78.765625 C 51.609375 -77.515625 54.648438 -76.285156 56.640625 -75.078125 L 59.515625 -73.15625 L 52.21875 -58.75 C 51.644531 -59.132812 50.84375 -59.628906 49.8125 -60.234375 C 48.789062 -60.847656 46.875 -61.664062 44.0625 -62.6875 C 41.25 -63.707031 38.625 -64.21875 36.1875 -64.21875 C 33.1875 -64.21875 30.867188 -63.578125 29.234375 -62.296875 C 27.597656 -61.023438 26.78125 -59.300781 26.78125 -57.125 C 26.78125 -56.03125 27.164062 -55.019531 27.9375 -54.09375 C 28.707031 -53.164062 30.019531 -52.171875 31.875 -51.109375 C 33.726562 -50.054688 35.359375 -49.207031 36.765625 -48.5625 C 38.171875 -47.925781 40.347656 -46.972656 43.296875 -45.703125 C 48.410156 -43.523438 52.773438 -40.5625 56.390625 -36.8125 C 60.015625 -33.070312 61.828125 -28.832031 61.828125 -24.09375 C 61.828125 -19.550781 61.007812 -15.582031 59.375 -12.1875 C 57.738281 -8.800781 55.5 -6.144531 52.65625 -4.21875 C 49.8125 -2.300781 46.660156 -0.878906 43.203125 0.046875 C 39.742188 0.972656 36 1.4375 31.96875 1.4375 C 28.507812 1.4375 25.113281 1.082031 21.78125 0.375 C 18.457031 -0.320312 15.675781 -1.195312 13.4375 -2.25 C 11.195312 -3.3125 9.179688 -4.351562 7.390625 -5.375 C 5.597656 -6.394531 4.285156 -7.257812 3.453125 -7.96875 L 2.203125 -9.03125 L 11.234375 -24.1875 C 12.003906 -23.550781 13.0625 -22.734375 14.40625 -21.734375 C 15.75 -20.742188 18.128906 -19.414062 21.546875 -17.75 C 24.972656 -16.09375 28 -15.265625 30.625 -15.265625 C 38.238281 -15.265625 42.046875 -17.859375 42.046875 -23.046875 C 42.046875 -24.128906 41.773438 -25.132812 41.234375 -26.0625 C 40.691406 -26.988281 39.726562 -27.914062 38.34375 -28.84375 C 36.96875 -29.769531 35.753906 -30.503906 34.703125 -31.046875 C 33.648438 -31.597656 31.921875 -32.429688 29.515625 -33.546875 C 27.117188 -34.671875 25.34375 -35.519531 24.1875 -36.09375 C 19.382812 -38.457031 15.671875 -41.414062 13.046875 -44.96875 C 10.429688 -48.519531 9.125 -52.347656 9.125 -56.453125 C 9.125 -63.554688 11.742188 -69.363281 16.984375 -73.875 C 22.234375 -78.382812 28.21875 -80.640625 34.9375 -80.640625 Z M 34.9375 -80.640625 "/></g></g></g><g fill="#000000" fill-opacity="1"><g transform="translate(80.88791, 245.902645)"><g><path d="M 9.109375 -6.09375 C 4.503906 -11.113281 2.203125 -17.269531 2.203125 -24.5625 C 2.203125 -31.863281 4.503906 -38.039062 9.109375 -43.09375 C 13.722656 -48.15625 19.582031 -50.6875 26.6875 -50.6875 C 33.21875 -50.6875 38.59375 -48.640625 42.8125 -44.546875 L 42.8125 -49.25 L 59.8125 -49.25 L 59.8125 0 L 43.015625 0 L 43.015625 -5.5625 L 42.8125 -5.5625 C 38.59375 -0.894531 33.21875 1.4375 26.6875 1.4375 C 19.582031 1.4375 13.722656 -1.070312 9.109375 -6.09375 Z M 23.5625 -32.921875 C 21.351562 -30.742188 20.25 -27.957031 20.25 -24.5625 C 20.25 -21.175781 21.304688 -18.410156 23.421875 -16.265625 C 25.535156 -14.128906 28.320312 -13.0625 31.78125 -13.0625 C 35.101562 -13.0625 37.835938 -14.144531 39.984375 -16.3125 C 42.128906 -18.488281 43.203125 -21.242188 43.203125 -24.578125 C 43.203125 -27.960938 42.097656 -30.742188 39.890625 -32.921875 C 37.679688 -35.097656 34.976562 -36.1875 31.78125 -36.1875 C 28.507812 -36.1875 25.769531 -35.097656 23.5625 -32.921875 Z M 23.5625 -32.921875 "/></g></g></g><g fill="#000000" fill-opacity="1"><g transform="translate(137.431917, 245.902645)"><g><path d="M 8.640625 -49.25 L 8.640625 -67.578125 L 25.625 -67.578125 L 25.625 -49.25 L 36 -49.25 L 36 -36.28125 L 25.625 -36.28125 L 25.625 -20.640625 C 25.625 -16.097656 26.90625 -13.828125 29.46875 -13.828125 C 30.113281 -13.828125 30.785156 -13.953125 31.484375 -14.203125 C 32.191406 -14.460938 32.738281 -14.71875 33.125 -14.96875 L 33.703125 -15.359375 L 37.921875 -1.625 C 34.273438 0.414062 30.113281 1.4375 25.4375 1.4375 C 22.238281 1.4375 19.488281 0.878906 17.1875 -0.234375 C 14.882812 -1.359375 13.140625 -2.863281 11.953125 -4.75 C 10.765625 -6.632812 9.914062 -8.617188 9.40625 -10.703125 C 8.894531 -12.785156 8.640625 -15.007812 8.640625 -17.375 L 8.640625 -36.28125 L 1.53125 -36.28125 L 1.53125 -49.25 Z M 8.640625 -49.25 "/></g></g></g><g fill="#000000" fill-opacity="1"><g transform="translate(166.327926, 245.902645)"><g><path d="M 5.765625 0 L 5.765625 -82.5625 L 22.75 -82.5625 L 22.75 -44.0625 L 22.9375 -44.0625 C 27.351562 -48.476562 32.0625 -50.6875 37.0625 -50.6875 C 39.488281 -50.6875 41.898438 -50.363281 44.296875 -49.71875 C 46.703125 -49.082031 49.007812 -48.09375 51.21875 -46.75 C 53.425781 -45.40625 55.21875 -43.5 56.59375 -41.03125 C 57.96875 -38.570312 58.65625 -35.710938 58.65625 -32.453125 L 58.65625 0 L 41.65625 0 L 41.65625 -27.84375 C 41.65625 -30.40625 40.835938 -32.644531 39.203125 -34.5625 C 37.578125 -36.476562 35.453125 -37.4375 32.828125 -37.4375 C 30.265625 -37.4375 27.941406 -36.441406 25.859375 -34.453125 C 23.785156 -32.472656 22.75 -30.269531 22.75 -27.84375 L 22.75 0 Z M 5.765625 0 "/></g></g></g><g fill="#000000" fill-opacity="1"><g transform="translate(220.759937, 245.902645)"><g><path d="M 9.109375 -6.09375 C 4.503906 -11.113281 2.203125 -17.269531 2.203125 -24.5625 C 2.203125 -31.863281 4.503906 -38.039062 9.109375 -43.09375 C 13.722656 -48.15625 19.582031 -50.6875 26.6875 -50.6875 C 33.21875 -50.6875 38.59375 -48.640625 42.8125 -44.546875 L 42.8125 -49.25 L 59.8125 -49.25 L 59.8125 0 L 43.015625 0 L 43.015625 -5.5625 L 42.8125 -5.5625 C 38.59375 -0.894531 33.21875 1.4375 26.6875 1.4375 C 19.582031 1.4375 13.722656 -1.070312 9.109375 -6.09375 Z M 23.5625 -32.921875 C 21.351562 -30.742188 20.25 -27.957031 20.25 -24.5625 C 20.25 -21.175781 21.304688 -18.410156 23.421875 -16.265625 C 25.535156 -14.128906 28.320312 -13.0625 31.78125 -13.0625 C 35.101562 -13.0625 37.835938 -14.144531 39.984375 -16.3125 C 42.128906 -18.488281 43.203125 -21.242188 43.203125 -24.578125 C 43.203125 -27.960938 42.097656 -30.742188 39.890625 -32.921875 C 37.679688 -35.097656 34.976562 -36.1875 31.78125 -36.1875 C 28.507812 -36.1875 25.769531 -35.097656 23.5625 -32.921875 Z M 23.5625 -32.921875 "/></g></g></g><g fill="#000000" fill-opacity="1"><g transform="translate(277.303931, 245.902645)"><g><path d="M 5.765625 0 L 5.765625 -49.25 L 22.75 -49.25 L 22.75 -42.140625 L 22.9375 -42.140625 C 23.070312 -42.398438 23.28125 -42.722656 23.5625 -43.109375 C 23.851562 -43.492188 24.476562 -44.164062 25.4375 -45.125 C 26.394531 -46.082031 27.414062 -46.941406 28.5 -47.703125 C 29.59375 -48.472656 31.003906 -49.160156 32.734375 -49.765625 C 34.460938 -50.378906 36.222656 -50.6875 38.015625 -50.6875 C 39.867188 -50.6875 41.691406 -50.429688 43.484375 -49.921875 C 45.273438 -49.410156 46.585938 -48.898438 47.421875 -48.390625 L 48.765625 -47.609375 L 41.65625 -33.21875 C 39.550781 -35.007812 36.609375 -35.90625 32.828125 -35.90625 C 30.785156 -35.90625 29.023438 -35.457031 27.546875 -34.5625 C 26.078125 -33.664062 25.035156 -32.578125 24.421875 -31.296875 C 23.816406 -30.015625 23.382812 -28.925781 23.125 -28.03125 C 22.875 -27.132812 22.75 -26.429688 22.75 -25.921875 L 22.75 0 Z M 5.765625 0 "/></g></g></g><g fill="#000000" fill-opacity="1"><g transform="translate(316.087933, 245.902645)"><g><path d="M 16.703125 -20.546875 C 19.773438 -20.546875 22.382812 -19.472656 24.53125 -17.328125 C 26.675781 -15.179688 27.75 -12.570312 27.75 -9.5 C 27.75 -6.488281 26.675781 -3.910156 24.53125 -1.765625 C 22.382812 0.367188 19.773438 1.4375 16.703125 1.4375 C 13.691406 1.4375 11.113281 0.367188 8.96875 -1.765625 C 6.832031 -3.910156 5.765625 -6.488281 5.765625 -9.5 C 5.765625 -12.570312 6.832031 -15.179688 8.96875 -17.328125 C 11.113281 -19.472656 13.691406 -20.546875 16.703125 -20.546875 Z M 16.703125 -20.546875 "/></g></g></g></svg>